<svg width="24" height="24" viewBox="0 0 24 24" fill="none" xmlns="http://www.w3.org/2000/svg">
<g id="ChatCircle" opacity="0.6" clip-path="url(#clip0_925_5352)">
<path id="Vector" opacity="0.4" d="M7.49356 19.7914C9.38406 20.8856 11.608 21.2549 13.7506 20.8304C15.8933 20.406 17.8084 19.2168 19.1391 17.4846C20.4697 15.7524 21.125 13.5954 20.9827 11.4157C20.8404 9.23605 19.9103 7.18253 18.3657 5.638C16.8212 4.09348 14.7677 3.16336 12.588 3.02108C10.4084 2.87879 8.25138 3.53405 6.51916 4.86468C4.78695 6.1953 3.59777 8.11048 3.17333 10.2531C2.74889 12.3958 3.11817 14.6197 4.21231 16.5102L3.0395 20.0118C2.99543 20.1439 2.98903 20.2857 3.02103 20.4213C3.05302 20.5569 3.12215 20.6808 3.22065 20.7794C3.31915 20.8779 3.44314 20.947 3.57871 20.979C3.71429 21.011 3.8561 21.0046 3.98825 20.9605L7.49356 19.7914Z" fill="white"/>
<path id="Vector_2" d="M7.49356 19.7914C9.38406 20.8856 11.608 21.2549 13.7506 20.8304C15.8933 20.406 17.8084 19.2168 19.1391 17.4846C20.4697 15.7524 21.125 13.5954 20.9827 11.4157C20.8404 9.23605 19.9103 7.18253 18.3657 5.638C16.8212 4.09348 14.7677 3.16336 12.588 3.02108C10.4084 2.87879 8.25138 3.53405 6.51916 4.86468C4.78695 6.1953 3.59777 8.11048 3.17333 10.2531C2.74889 12.3958 3.11817 14.6197 4.21231 16.5102L3.0395 20.0118C2.99543 20.1439 2.98903 20.2857 3.02103 20.4213C3.05302 20.5569 3.12215 20.6808 3.22065 20.7794C3.31915 20.8779 3.44314 20.947 3.57871 20.979C3.71429 21.011 3.8561 21.0046 3.98825 20.9605L7.49356 19.7914Z" stroke="white" stroke-opacity="0.6" stroke-width="1.2" stroke-linecap="round" stroke-linejoin="round"/>
</g>
<defs>
<clipPath id="clip0_925_5352">
<rect width="24" height="24" fill="white"/>
</clipPath>
</defs>
</svg>
