<svg width="12" height="12" viewBox="0 0 12 12" fill="none" xmlns="http://www.w3.org/2000/svg">
<g id="ph:heart">
<path id="Vector" d="M8.34375 1.5C7.37578 1.5 6.52828 1.91625 6 2.61984C5.47172 1.91625 4.62422 1.5 3.65625 1.5C2.88573 1.50087 2.14702 1.80734 1.60218 2.35218C1.05734 2.89702 0.750868 3.63573 0.75 4.40625C0.75 7.6875 5.61516 10.3434 5.82234 10.4531C5.87695 10.4825 5.93799 10.4979 6 10.4979C6.06201 10.4979 6.12305 10.4825 6.17766 10.4531C6.38484 10.3434 11.25 7.6875 11.25 4.40625C11.2491 3.63573 10.9427 2.89702 10.3978 2.35218C9.85298 1.80734 9.11427 1.50087 8.34375 1.5ZM6 9.69375C5.14406 9.195 1.5 6.92297 1.5 4.40625C1.50074 3.83461 1.72816 3.28659 2.13237 2.88237C2.53659 2.47816 3.08461 2.25074 3.65625 2.25C4.56797 2.25 5.33344 2.73563 5.65312 3.51562C5.68138 3.5844 5.72944 3.64323 5.7912 3.68463C5.85297 3.72603 5.92564 3.74814 6 3.74814C6.07436 3.74814 6.14703 3.72603 6.2088 3.68463C6.27056 3.64323 6.31862 3.5844 6.34687 3.51562C6.66656 2.73422 7.43203 2.25 8.34375 2.25C8.91539 2.25074 9.46341 2.47816 9.86763 2.88237C10.2718 3.28659 10.4993 3.83461 10.5 4.40625C10.5 6.91922 6.855 9.19453 6 9.69375Z" fill="white"/>
</g>
</svg>
