<svg width="20" height="20" viewBox="0 0 20 20" fill="none" xmlns="http://www.w3.org/2000/svg">
<g clip-path="url(#clip0_925_5420)">
<path d="M17.8125 2.62462C17.5976 2.4856 17.3519 2.4015 17.0968 2.3797C16.8418 2.3579 16.5854 2.39909 16.35 2.49962L8.6375 5.53712C8.45491 5.61144 8.25964 5.64964 8.0625 5.64962H3.125C2.7106 5.64962 2.31317 5.81424 2.02015 6.10727C1.72712 6.4003 1.5625 6.79772 1.5625 7.21212V7.33712H0V11.0871H1.5625V11.2496C1.57229 11.6575 1.74122 12.0454 2.0332 12.3303C2.32517 12.6153 2.71702 12.7747 3.125 12.7746L5 16.7496C5.12696 17.0173 5.32685 17.2437 5.5767 17.4029C5.82656 17.5621 6.11624 17.6476 6.4125 17.6496H7.2C7.61223 17.6463 8.00645 17.4803 8.29678 17.1876C8.58711 16.8949 8.75001 16.4994 8.75 16.0871V12.9246L16.35 15.9621C16.5369 16.0365 16.7363 16.0747 16.9375 16.0746C17.2496 16.0696 17.5536 15.9741 17.8125 15.7996C18.0181 15.6608 18.1877 15.475 18.3072 15.2577C18.4268 15.0403 18.4929 14.7976 18.5 14.5496V3.91212C18.4989 3.65777 18.4356 3.40754 18.3158 3.18317C18.196 2.95879 18.0232 2.76706 17.8125 2.62462ZM7.1875 7.21212V11.2496H3.125V7.21212H7.1875ZM7.1875 16.0871H6.4L4.8625 12.7746H7.1875V16.0871ZM9.2125 11.4371C9.06409 11.3613 8.90933 11.2985 8.75 11.2496V7.12462C8.90781 7.09206 9.06254 7.04606 9.2125 6.98712L16.9375 3.91212V14.5121L9.2125 11.4371ZM18.5375 7.64962V10.7746C18.9519 10.7746 19.3493 10.61 19.6424 10.317C19.9354 10.024 20.1 9.62652 20.1 9.21212C20.1 8.79772 19.9354 8.4003 19.6424 8.10727C19.3493 7.81424 18.9519 7.64962 18.5375 7.64962Z" fill="white"/>
</g>
<defs>
<clipPath id="clip0_925_5420">
<rect width="20" height="20" fill="white"/>
</clipPath>
</defs>
</svg>
