<svg width="20" height="21" viewBox="0 0 20 21" fill="none" xmlns="http://www.w3.org/2000/svg">
<path opacity="0.3" d="M4.16699 7.16667H15.8337V5.5H4.16699V7.16667Z" fill="white"/>
<path d="M15.8333 3.83366H15V2.16699H13.3333V3.83366H6.66667V2.16699H5V3.83366H4.16667C3.24167 3.83366 2.50833 4.58366 2.50833 5.50033L2.5 17.167C2.5 17.609 2.67559 18.0329 2.98816 18.3455C3.30072 18.6581 3.72464 18.8337 4.16667 18.8337H15.8333C16.75 18.8337 17.5 18.0837 17.5 17.167V5.50033C17.5 4.58366 16.75 3.83366 15.8333 3.83366ZM15.8333 17.167H4.16667V8.83366H15.8333V17.167ZM15.8333 7.16699H4.16667V5.50033H15.8333V7.16699ZM10 11.3337H14.1667V15.5003H10V11.3337Z" fill="white"/>
</svg>
