<svg width="20" height="20" viewBox="0 0 20 20" fill="none" xmlns="http://www.w3.org/2000/svg">
<g clip-path="url(#clip0_925_5179)">
<path opacity="0.4" d="M16.6703 8.56436L10.4203 2.66279C10.3052 2.55805 10.1552 2.5 9.99961 2.5C9.844 2.5 9.69399 2.55805 9.57891 2.66279L3.32891 8.56436C3.26459 8.623 3.21323 8.69443 3.17811 8.77407C3.143 8.85372 3.12491 8.93982 3.125 9.02686V16.8753H8.125V12.5003C8.125 12.3345 8.19085 12.1756 8.30806 12.0584C8.42527 11.9411 8.58424 11.8753 8.75 11.8753H11.25C11.4158 11.8753 11.5747 11.9411 11.6919 12.0584C11.8092 12.1756 11.875 12.3345 11.875 12.5003V16.8753H16.875V9.02686C16.875 8.93976 16.8568 8.85362 16.8215 8.77398C16.7863 8.69433 16.7348 8.62293 16.6703 8.56436Z" fill="white"/>
<path d="M16.875 16.8753V9.02686C16.875 8.93976 16.8568 8.85362 16.8215 8.77398C16.7863 8.69433 16.7348 8.62293 16.6703 8.56436L10.4203 2.66279C10.3052 2.55805 10.1552 2.5 9.99961 2.5C9.844 2.5 9.69399 2.55805 9.57891 2.66279L3.32891 8.56436C3.26459 8.623 3.21323 8.69443 3.17811 8.77407C3.143 8.85372 3.12491 8.93982 3.125 9.02686V16.8753" stroke="white" stroke-width="1.2" stroke-linecap="round" stroke-linejoin="round"/>
<path d="M1.25 16.875H18.75" stroke="white" stroke-width="1.2" stroke-linecap="round" stroke-linejoin="round"/>
<path d="M11.875 16.875V12.5C11.875 12.3342 11.8092 12.1753 11.6919 12.0581C11.5747 11.9408 11.4158 11.875 11.25 11.875H8.75C8.58424 11.875 8.42527 11.9408 8.30806 12.0581C8.19085 12.1753 8.125 12.3342 8.125 12.5V16.875" stroke="white" stroke-width="1.2" stroke-linecap="round" stroke-linejoin="round"/>
</g>
<defs>
<clipPath id="clip0_925_5179">
<rect width="20" height="20" fill="white"/>
</clipPath>
</defs>
</svg>
