<svg width="20" height="20" viewBox="0 0 20 20" fill="none" xmlns="http://www.w3.org/2000/svg">
<path d="M6.18856 15H16.6669C16.6644 15.775 16.6486 16.3525 16.5727 16.8083C16.4811 17.3525 16.3144 17.64 16.0594 17.845C15.8036 18.05 15.4452 18.1842 14.7677 18.2567C14.0702 18.3317 13.1461 18.3333 11.8211 18.3333H8.12939C6.80439 18.3333 5.87939 18.3325 5.18273 18.2567C4.50523 18.1842 4.14689 18.05 3.89106 17.845C3.63606 17.64 3.46939 17.3525 3.37773 16.8092C3.371 16.7673 3.36489 16.7254 3.35939 16.6833C3.32606 16.4408 3.30939 16.3192 3.41439 16.0333C3.52023 15.7467 3.56523 15.7025 3.65689 15.6125C3.95454 15.3303 4.32566 15.1377 4.72773 15.0567C4.96939 15.005 5.28606 15 6.18856 15Z" fill="white"/>
<path opacity="0.5" d="M3.93884 2.27783C4.19384 2.02116 4.55051 1.85449 5.22551 1.76283C5.92051 1.66866 6.84051 1.66699 8.16051 1.66699H11.8388C13.1588 1.66699 14.0788 1.66866 14.7738 1.76283C15.4488 1.85449 15.8055 2.02116 16.0605 2.27783C16.3147 2.53449 16.4805 2.89449 16.5713 3.57533C16.6647 4.27533 16.6663 5.20449 16.6663 6.53533V15.0003H6.18801C5.28467 15.0003 4.96967 15.0053 4.72717 15.057C4.29967 15.1487 3.92717 15.3462 3.65634 15.6128C3.56467 15.7028 3.51967 15.747 3.41384 16.0337C3.36333 16.1553 3.33592 16.2853 3.33301 16.417V6.53533C3.33301 5.20449 3.33467 4.27616 3.42801 3.57533C3.51884 2.89533 3.68467 2.53449 3.93884 2.27783Z" fill="white"/>
<path d="M6.04199 5.83301C6.04199 5.66725 6.10784 5.50828 6.22505 5.39107C6.34226 5.27386 6.50123 5.20801 6.66699 5.20801H13.3337C13.4994 5.20801 13.6584 5.27386 13.7756 5.39107C13.8928 5.50828 13.9587 5.66725 13.9587 5.83301C13.9587 5.99877 13.8928 6.15774 13.7756 6.27495C13.6584 6.39216 13.4994 6.45801 13.3337 6.45801H6.66699C6.50123 6.45801 6.34226 6.39216 6.22505 6.27495C6.10784 6.15774 6.04199 5.99877 6.04199 5.83301ZM6.66699 8.12467C6.50123 8.12467 6.34226 8.19052 6.22505 8.30773C6.10784 8.42494 6.04199 8.58391 6.04199 8.74967C6.04199 8.91543 6.10784 9.07441 6.22505 9.19162C6.34226 9.30883 6.50123 9.37467 6.66699 9.37467H10.8337C10.9994 9.37467 11.1584 9.30883 11.2756 9.19162C11.3928 9.07441 11.4587 8.91543 11.4587 8.74967C11.4587 8.58391 11.3928 8.42494 11.2756 8.30773C11.1584 8.19052 10.9994 8.12467 10.8337 8.12467H6.66699Z" fill="white"/>
</svg>
