<svg width="32" height="32" viewBox="0 0 32 32" fill="none" xmlns="http://www.w3.org/2000/svg">
<g clip-path="url(#clip0_925_5324)">
<path d="M21.1402 0.388672H10.8614C5.07747 0.388672 0.388672 5.07747 0.388672 10.8614V21.1402C0.388672 26.9241 5.07747 31.6129 10.8614 31.6129H21.1402C26.9241 31.6129 31.6129 26.9241 31.6129 21.1402V10.8614C31.6129 5.07747 26.9241 0.388672 21.1402 0.388672Z" stroke="black" stroke-opacity="0.03" stroke-width="1.6"/>
<path fill-rule="evenodd" clip-rule="evenodd" d="M2.9082 10.7738C2.90791 10.0708 3.09813 9.38077 3.45866 8.77718C3.81919 8.1736 4.33654 7.67899 4.95572 7.34595L14.1678 2.40001C14.7308 2.09768 15.3599 1.93945 15.9989 1.93945C16.6379 1.93945 17.2669 2.09768 17.8299 2.40001L27.042 7.34547C27.6614 7.67848 28.1789 8.17314 28.5395 8.77682C28.9001 9.3805 29.0904 10.0706 29.09 10.7738V21.2262C29.0903 21.9293 28.9 22.6193 28.5394 23.2229C28.1787 23.8265 27.6613 24.3211 27.042 24.6541L17.8299 29.6C17.2669 29.9023 16.6379 30.0606 15.9989 30.0606C15.3599 30.0606 14.7308 29.9023 14.1678 29.6L4.95572 24.6546C4.33647 24.3215 3.81907 23.8268 3.45854 23.2231C3.09801 22.6194 2.90782 21.9293 2.9082 21.2262V10.7738Z" fill="white" fill-opacity="0.5"/>
<path fill-rule="evenodd" clip-rule="evenodd" d="M4.36328 11.3036C4.36338 10.6734 4.53367 10.0548 4.85617 9.51334C5.17867 8.97186 5.64141 8.52751 6.19552 8.22723L14.3313 3.81754C14.8435 3.53993 15.417 3.39453 15.9996 3.39453C16.5823 3.39453 17.1557 3.53993 17.668 3.81754L25.8038 8.22723C26.3579 8.52751 26.8206 8.97186 27.1431 9.51334C27.4656 10.0548 27.6359 10.6734 27.636 11.3036V20.6971C27.6359 21.3273 27.4656 21.9458 27.1431 22.4873C26.8206 23.0288 26.3579 23.4731 25.8038 23.7734L17.668 28.1831C17.1557 28.4607 16.5823 28.6061 15.9996 28.6061C15.417 28.6061 14.8435 28.4607 14.3313 28.1831L6.19552 23.7734C5.64141 23.4731 5.17867 23.0288 4.85617 22.4873C4.53367 21.9458 4.36338 21.3273 4.36328 20.6971V11.3036Z" fill="#41F8F8"/>
<path d="M18.0003 17.3337C16.2203 17.3337 12.667 18.2203 12.667 20.0003V21.3337H23.3337V20.0003C23.3337 18.2203 19.7803 17.3337 18.0003 17.3337ZM12.0003 14.667V12.667H10.667V14.667H8.66699V16.0003H10.667V18.0003H12.0003V16.0003H14.0003V14.667M18.0003 16.0003C18.7076 16.0003 19.3858 15.7194 19.8859 15.2193C20.386 14.7192 20.667 14.0409 20.667 13.3337C20.667 12.6264 20.386 11.9481 19.8859 11.448C19.3858 10.9479 18.7076 10.667 18.0003 10.667C17.2931 10.667 16.6148 10.9479 16.1147 11.448C15.6146 11.9481 15.3337 12.6264 15.3337 13.3337C15.3337 14.0409 15.6146 14.7192 16.1147 15.2193C16.6148 15.7194 17.2931 16.0003 18.0003 16.0003Z" fill="black"/>
</g>
<defs>
<clipPath id="clip0_925_5324">
<rect width="32" height="32" fill="white"/>
</clipPath>
</defs>
</svg>
