<svg width="20" height="20" viewBox="0 0 20 20" fill="none" xmlns="http://www.w3.org/2000/svg">
<path opacity="0.5" fill-rule="evenodd" clip-rule="evenodd" d="M11.8994 1.79366C11.5911 1.66699 11.1994 1.66699 10.4169 1.66699C9.63443 1.66699 9.24276 1.66699 8.93443 1.79366C8.52397 1.96217 8.19725 2.2868 8.0261 2.69616C7.94776 2.88199 7.91776 3.09949 7.90526 3.41533C7.89971 3.64416 7.83587 3.8678 7.7198 4.06509C7.60373 4.26238 7.43926 4.42681 7.24193 4.54283C7.04088 4.65458 6.81488 4.71378 6.58487 4.71495C6.35485 4.71611 6.12826 4.6592 5.9261 4.54949C5.64443 4.40116 5.44026 4.31949 5.2386 4.29283C4.79739 4.23489 4.35116 4.35349 3.99693 4.62283C3.73193 4.82449 3.5361 5.16116 3.14526 5.83366C2.7536 6.50616 2.5586 6.84199 2.51443 7.17116C2.4561 7.60949 2.5761 8.05282 2.84776 8.40366C2.9711 8.56366 3.14526 8.69783 3.41443 8.86616C3.81193 9.11366 4.06693 9.53533 4.06693 10.0003C4.06693 10.4653 3.81193 10.887 3.41526 11.1337C3.14526 11.3028 2.9711 11.437 2.84693 11.597C2.71283 11.7703 2.6144 11.9684 2.55733 12.18C2.50026 12.3915 2.48568 12.6123 2.51443 12.8295C2.5586 13.1578 2.7536 13.4945 3.14526 14.167C3.53693 14.8395 3.73193 15.1753 3.99693 15.3778C4.35026 15.647 4.79693 15.7653 5.2386 15.7078C5.44026 15.6812 5.64443 15.5995 5.9261 15.4512C6.12837 15.3413 6.35511 15.2843 6.58529 15.2855C6.81546 15.2866 7.04161 15.3459 7.24276 15.4578C7.64776 15.6912 7.88776 16.1203 7.90526 16.5853C7.91776 16.902 7.94776 17.1187 8.0261 17.3045C8.1961 17.7128 8.52276 18.0378 8.93443 18.207C9.24276 18.3337 9.63443 18.3337 10.4169 18.3337C11.1994 18.3337 11.5911 18.3337 11.8994 18.207C12.3099 18.0385 12.6366 17.7139 12.8078 17.3045C12.8861 17.1187 12.9161 16.902 12.9286 16.5853C12.9453 16.1203 13.1861 15.6903 13.5919 15.4578C13.793 15.3461 14.019 15.2869 14.249 15.2857C14.479 15.2845 14.7056 15.3414 14.9078 15.4512C15.1894 15.5995 15.3936 15.6812 15.5953 15.7078C16.0369 15.7662 16.4836 15.647 16.8369 15.3778C17.1019 15.1762 17.2978 14.8395 17.6886 14.167C18.0803 13.4945 18.2753 13.1587 18.3194 12.8295C18.3481 12.6122 18.3333 12.3914 18.2761 12.1799C18.2189 11.9683 18.1203 11.7702 17.9861 11.597C17.8628 11.437 17.6886 11.3028 17.4194 11.1345C17.0219 10.887 16.7669 10.4653 16.7669 10.0003C16.7669 9.53533 17.0219 9.11366 17.4186 8.86699C17.6886 8.69783 17.8628 8.56366 17.9869 8.40366C18.121 8.23037 18.2195 8.03223 18.2765 7.82068C18.3336 7.60914 18.3482 7.38838 18.3194 7.17116C18.2753 6.84282 18.0803 6.50616 17.6886 5.83366C17.2969 5.16116 17.1019 4.82533 16.8369 4.62283C16.4827 4.35349 16.0365 4.23489 15.5953 4.29283C15.3936 4.31949 15.1894 4.40116 14.9078 4.54949C14.7055 4.65935 14.4787 4.71634 14.2486 4.71517C14.0184 4.71401 13.7922 4.65473 13.5911 4.54283C13.3939 4.42671 13.2296 4.26224 13.1137 4.06495C12.9978 3.86767 12.9341 3.64408 12.9286 3.41533C12.9161 3.09866 12.8861 2.88199 12.8078 2.69616C12.7231 2.49344 12.5992 2.30939 12.4434 2.15454C12.2875 1.99969 12.1027 1.87706 11.8994 1.79366Z" fill="white"/>
<path d="M12.9358 10C12.9358 11.3808 11.8075 12.5 10.4166 12.5C9.02496 12.5 7.89746 11.3808 7.89746 10C7.89746 8.61917 9.02496 7.5 10.4166 7.5C11.8083 7.5 12.9358 8.61917 12.9358 10Z" fill="white"/>
</svg>
