<svg width="20" height="20" viewBox="0 0 20 20" fill="none" xmlns="http://www.w3.org/2000/svg">
<path opacity="0.2" d="M16.4015 8.90145L14.214 11.089C13.6531 11.6516 12.9272 12.0206 12.1421 12.1421C12.0206 12.9272 11.6516 13.6531 11.089 14.214L8.90145 16.4015C8.19626 17.0953 7.24548 17.4823 6.25621 17.4783C5.26695 17.4742 4.31935 17.0795 3.61983 16.3799C2.92031 15.6804 2.52554 14.7328 2.52152 13.7436C2.51749 12.7543 2.90453 11.8035 3.59833 11.0983L5.78583 8.91083C6.34672 8.34816 7.07257 7.97921 7.8577 7.8577C7.97921 7.07257 8.34816 6.34672 8.91083 5.78583L11.0983 3.59833C11.8035 2.90453 12.7543 2.51749 13.7436 2.52152C14.7328 2.52554 15.6804 2.92031 16.3799 3.61983C17.0795 4.31935 17.4742 5.26695 17.4783 6.25621C17.4823 7.24548 17.0953 8.19626 16.4015 8.90145Z" fill="white"/>
<path d="M10.7449 14.5591C10.862 14.6763 10.9278 14.8352 10.9278 15.0009C10.9278 15.1665 10.862 15.3255 10.7449 15.4427L9.34333 16.8489C8.9367 17.2553 8.454 17.5776 7.9228 17.7974C7.39161 18.0173 6.82231 18.1303 6.24742 18.1301C5.08638 18.1298 3.97304 17.6682 3.15232 16.8469C2.3316 16.0257 1.87073 14.9121 1.87109 13.751C1.87146 12.59 2.33303 11.4767 3.15427 10.6559L5.35115 8.45984C6.13986 7.67028 7.2005 7.21198 8.31601 7.17873C9.43152 7.14547 10.5176 7.53977 11.3519 8.28093C11.4762 8.39116 11.5517 8.54627 11.5617 8.71212C11.5716 8.87797 11.5153 9.04099 11.4051 9.16531C11.2948 9.28963 11.1397 9.36507 10.9739 9.37503C10.808 9.38499 10.645 9.32866 10.5207 9.21843C9.92483 8.6893 9.14935 8.40778 8.35282 8.43145C7.55629 8.45512 6.7989 8.78219 6.23552 9.34578L4.03865 11.5403C3.45248 12.1265 3.12317 12.9215 3.12317 13.7505C3.12317 14.5794 3.45248 15.3745 4.03865 15.9606C4.62482 16.5468 5.41983 16.8761 6.2488 16.8761C7.07777 16.8761 7.87279 16.5468 8.45896 15.9606L9.86052 14.5591C9.91857 14.5009 9.9875 14.4548 10.0634 14.4234C10.1392 14.3919 10.2206 14.3758 10.3027 14.3758C10.3848 14.3758 10.4662 14.3919 10.542 14.4234C10.6179 14.4548 10.6869 14.5009 10.7449 14.5591ZM16.8449 3.15281C16.0235 2.33329 14.9106 1.87305 13.7504 1.87305C12.5901 1.87305 11.4772 2.33329 10.6558 3.15281L9.25427 4.55672C9.1371 4.67399 9.07131 4.83301 9.07139 4.99879C9.07146 5.16457 9.13739 5.32353 9.25466 5.4407C9.37194 5.55787 9.53096 5.62366 9.69674 5.62358C9.86251 5.62351 10.0215 5.55758 10.1386 5.44031L11.5402 4.03875C12.1264 3.45258 12.9214 3.12327 13.7504 3.12327C14.5793 3.12327 15.3744 3.45258 15.9605 4.03875C16.5467 4.62492 16.876 5.41993 16.876 6.2489C16.876 7.07787 16.5467 7.87289 15.9605 8.45906L13.7636 10.6559C13.2 11.2192 12.4424 11.5458 11.6459 11.5691C10.8494 11.5923 10.074 11.3104 9.47849 10.7809C9.41693 10.7264 9.34523 10.6844 9.26747 10.6576C9.18971 10.6307 9.10742 10.6194 9.0253 10.6243C8.94318 10.6293 8.86283 10.6503 8.78885 10.6863C8.71487 10.7223 8.6487 10.7725 8.59412 10.8341C8.53954 10.8956 8.49761 10.9673 8.47074 11.0451C8.44388 11.1228 8.43259 11.2051 8.43752 11.2872C8.44245 11.3694 8.46351 11.4497 8.4995 11.5237C8.53548 11.5977 8.58568 11.6639 8.64724 11.7184C9.4814 12.4598 10.5673 12.8544 11.6828 12.8214C12.7984 12.7884 13.8591 12.3304 14.648 11.5411L16.8449 9.345C17.6649 8.52357 18.1254 7.41034 18.1254 6.24968C18.1254 5.08903 17.6649 3.97579 16.8449 3.15437V3.15281Z" fill="white"/>
</svg>
